<svg xmlns="http://www.w3.org/2000/svg" width="800" height="800" viewBox="0 0 24 24" fill="none" xmlns:v="https://vecta.io/nano"><path fill="#fff" d="M0 0h24v24H0z"/><path d="M13.5 2l.496-.062A.5.5 0 0 0 13.5 1.5V2zm-3 0v-.5a.5.5 0 0 0-.496.438L10.5 2zm3.275 2.198l-.496.062a.5.5 0 0 0 .386.426l.111-.488zm2.487 1.031l-.267.423a.5.5 0 0 0 .574-.028l-.307-.395zm1.749-1.36l.354-.354a.5.5 0 0 0-.661-.041l.307.395zm2.121 2.121l.395.307a.5.5 0 0 0-.041-.661l-.354.354zm-1.36 1.749l-.395-.307a.5.5 0 0 0-.028.574l.423-.267zm1.031 2.487l-.488.111a.5.5 0 0 0 .426.386l.062-.496zM22 10.5h.5a.5.5 0 0 0-.438-.496L22 10.5zm0 3l.062.496a.5.5 0 0 0 .438-.496H22zm-2.198.275l-.062-.496a.5.5 0 0 0-.426.386l.488.111zm-1.031 2.487l-.423-.267a.5.5 0 0 0 .028.574l.395-.307zm1.36 1.749l.354.354a.5.5 0 0 0 .041-.661l-.395.307zm-2.121 2.121l-.307.395a.5.5 0 0 0 .661-.041l-.354-.354zm-1.749-1.36l.307-.395a.5.5 0 0 0-.574-.028l.267.423zm-2.487 1.031l-.111-.488a.5.5 0 0 0-.386.426l.496.062zM13.5 22v.5a.5.5 0 0 0 .496-.438L13.5 22zm-3 0l-.496.062a.5.5 0 0 0 .496.438V22zm-.275-2.198l.496-.062a.5.5 0 0 0-.386-.426l-.111.488zm-2.487-1.031l.267-.423a.5.5 0 0 0-.574.028l.307.395zm-1.749 1.36l-.354.354a.5.5 0 0 0 .661.041l-.307-.395zM3.868 18.01l-.395-.307a.5.5 0 0 0 .041.661l.354-.354zm1.36-1.749l.395.307a.5.5 0 0 0 .028-.574l-.423.267zm-1.031-2.487l.488-.111a.5.5 0 0 0-.426-.386l-.062.496zM2 13.5h-.5a.5.5 0 0 0 .438.496L2 13.5zm0-3l-.062-.496a.5.5 0 0 0-.438.496H2zm2.198-.275l.062.496a.5.5 0 0 0 .426-.386l-.488-.111zm1.031-2.487l.423.267a.5.5 0 0 0-.028-.574l-.395.307zM3.868 5.99l-.354-.354a.5.5 0 0 0-.041.661l.395-.307zM5.99 3.868l.307-.395a.5.5 0 0 0-.661.041l.354.354zm1.749 1.36l-.307.395a.5.5 0 0 0 .574.028l-.267-.423zm2.487-1.031l.111.488a.5.5 0 0 0 .386-.426l-.496-.062zM13.5 1.5h-3v1h3v-1zm.771 2.636l-.275-2.198-.992.124.275 2.198.992-.124zm2.258.67c-.801-.505-1.692-.88-2.643-1.096l-.221.975c.839.19 1.624.521 2.331.966l.533-.846zm.04.818l1.749-1.36-.614-.789-1.749 1.36.614.789zm1.088-1.401l2.121 2.121.707-.707-2.121-2.121-.707.707zm2.08 1.461l-1.36 1.749.789.614 1.36-1.749-.789-.614zm.553 4.432a8.45 8.45 0 0 0-1.096-2.643l-.846.533c.445.706.776 1.492.966 2.331l.975-.221zm1.772-.111l-2.198-.275-.124.992 2.198.275.124-.992zM22.5 13.5v-3h-1v3h1zm-2.636.771l2.198-.275-.124-.992-2.198.275.124.992zm-.67 2.258a8.45 8.45 0 0 0 1.096-2.643l-.975-.221c-.19.839-.521 1.624-.966 2.331l.846.533zm1.332 1.175l-1.36-1.749-.789.614 1.36 1.749.789-.614zm-2.162 2.782l2.121-2.121-.707-.707-2.121 2.121.707.707zm-2.409-1.319l1.749 1.36.614-.789-1.749-1.36-.614.789zm-2.07 1.124a8.45 8.45 0 0 0 2.643-1.096l-.533-.846c-.706.445-1.492.776-2.331.966l.221.975zm.111 1.772l.275-2.198-.992-.124-.275 2.198.992.124zM10.5 22.5h3v-1h-3v1zm-.771-2.636l.275 2.198.992-.124-.275-2.198-.992.124zm-2.258-.67a8.45 8.45 0 0 0 2.643 1.096l.221-.975c-.839-.19-1.624-.521-2.331-.966l-.533.846zm-1.175 1.332l1.749-1.36-.614-.789-1.749 1.36.614.789zm-2.782-2.162l2.121 2.121.707-.707-2.121-2.121-.707.707zm1.319-2.409l-1.36 1.749.789.614 1.36-1.749-.789-.614zm-1.124-2.07c.216.952.591 1.843 1.096 2.643l.846-.533c-.445-.706-.776-1.492-.966-2.331l-.975.221zm-1.772.111l2.198.275.124-.992-2.198-.275-.124.992zM1.5 10.5v3h1v-3h-1zm2.636-.771l-2.198.275.124.992 2.198-.275-.124-.992zm.67-2.258c-.505.801-.88 1.692-1.096 2.643l.975.221c.19-.839.521-1.624.966-2.331l-.846-.533zM3.474 6.297l1.36 1.749.789-.614-1.36-1.749-.789.614zm2.162-2.782L3.515 5.636l.707.707 2.121-2.121-.707-.707zm2.409 1.319l-1.749-1.36-.614.789 1.749 1.36.614-.789zm2.07-1.124c-.952.216-1.843.591-2.643 1.096l.533.846c.706-.445 1.492-.776 2.331-.966l-.221-.975zm-.111-1.772l-.275 2.198.992.124.275-2.198-.992-.124z" fill="#000"/><circle cx="12" cy="12" r="4" stroke="#000" stroke-linejoin="round"/></svg>